<?xml version="1.0" encoding="UTF-8"?>
<svg width="1108px" height="443px" viewBox="0 0 1108 443" version="1.1" xmlns="http://www.w3.org/2000/svg" xmlns:xlink="http://www.w3.org/1999/xlink">
    <title>Artboard</title>
    <g id="Artboard" stroke="none" stroke-width="1" fill="none" fill-rule="evenodd">
        <g id="Group-2">
            <rect id="Rectangle" stroke="#6A56F6" stroke-width="5" fill="#DFDBFF" x="2.5" y="2.5" width="386" height="437" rx="4"></rect>
            <text id="50%" font-family="Menlo-Regular, Menlo" font-size="30" font-weight="normal" letter-spacing="0.214285714" fill="#6A56F6">
                <tspan x="71.5862863" y="232">50%</tspan>
            </text>
            <line x1="196" y1="6" x2="196" y2="433" id="Line" stroke="#6A56F6" stroke-width="2" stroke-linecap="square" stroke-dasharray="7"></line>
            <g id="Group" transform="translate(19.000000, 210.000000)" stroke="#6A56F6" stroke-width="2">
                <line x1="0.5" y1="11.5" x2="32.5" y2="11.5" id="Line-2" stroke-linecap="square"></line>
                <polyline id="Path" points="8 23 0 12 8 0"></polyline>
            </g>
            <g id="Group" transform="translate(162.500000, 221.500000) scale(-1, 1) translate(-162.500000, -221.500000) translate(146.000000, 210.000000)" stroke="#6A56F6" stroke-width="2">
                <line x1="0.5" y1="11.5" x2="32.5" y2="11.5" id="Line-2" stroke-linecap="square"></line>
                <polyline id="Path" points="8 23 0 12 8 0"></polyline>
            </g>
        </g>
        <g id="Group-2" transform="translate(436.000000, 0.000000)">
            <rect id="Rectangle" stroke="#6A56F6" stroke-width="5" fill="#DFDBFF" x="2.5" y="2.5" width="667" height="437" rx="4"></rect>
            <text id="50%" font-family="Menlo-Regular, Menlo" font-size="30" font-weight="normal" letter-spacing="0.214285714" fill="#6A56F6">
                <tspan x="143.586286" y="232">50%</tspan>
            </text>
            <line x1="336" y1="7" x2="336.5" y2="441.5" id="Line" stroke="#6A56F6" stroke-width="2" stroke-linecap="square" stroke-dasharray="7"></line>
            <g id="Group" transform="translate(20.000000, 210.000000)" stroke="#6A56F6" stroke-width="2">
                <line x1="0.5" y1="11.5" x2="112" y2="12" id="Line-2" stroke-linecap="square"></line>
                <polyline id="Path" points="8 23 0 12 8 0"></polyline>
            </g>
            <g id="Group" transform="translate(264.500000, 220.500000) scale(-1, 1) translate(-264.500000, -220.500000) translate(210.000000, 209.000000)" stroke="#6A56F6" stroke-width="2">
                <line x1="1" y1="12" x2="109" y2="12" id="Line-2" stroke-linecap="square"></line>
                <polyline id="Path" points="8 23 0 12 8 0"></polyline>
            </g>
        </g>
    </g>
</svg>